<?xml version="1.0" encoding="utf-8"?>
<!-- Generator: Adobe Illustrator 19.0.0, SVG Export Plug-In . SVG Version: 6.00 Build 0)  -->
<svg version="1.1" id="Warstwa_1" xmlns="http://www.w3.org/2000/svg" xmlns:xlink="http://www.w3.org/1999/xlink" x="0px" y="0px"
	 viewBox="0 0 708.7 708.7" style="enable-background:new 0 0 708.7 708.7;" xml:space="preserve">
<style type="text/css">
	.st0{fill:#154A90;}
	.st1{fill:#FFFFFF;}
</style>
<g id="XMLID_1_">
	<g id="XMLID_10_">
		<path id="XMLID_15_" class="st0" d="M326.5,77.5l-227.8,117c-17.2,8.8-27.8,25.2-27.8,42.9v234c0,17.7,10.6,34,27.8,42.9
			l227.8,117c17.2,8.8,38.4,8.8,55.6,0l227.8-117c17.2-8.8,27.8-25.2,27.8-42.9v-234c0-17.7-10.6-34-27.8-42.9l-227.8-117
			C364.9,68.7,343.7,68.7,326.5,77.5z"/>
	</g>
	<path id="XMLID_2_" class="st1" d="M462.7,240.6h-74.6v-74.6c0-18.3-15.4-33.3-33.7-33.3c-18.3,0-33.7,15-33.7,33.3v74.6h-74.6
		c-18.3,0-33.3,15.4-33.3,33.7s15,33.7,33.3,33.7h74.6v74.6c0,18.3,15.4,33.3,33.7,33.3c18.3,0,33.7-15,33.7-33.3v-74.6h74.6
		c18.3,0,33.3-15.4,33.3-33.7S481.1,240.6,462.7,240.6z"/>
	<g id="XMLID_3_">
		<path id="XMLID_4_" class="st1" d="M149.6,434.6v45.7c0,2.6-1.3,4-3.9,4h-6.8c-1.1,0-2-0.3-2.6-0.8c-0.6-0.5-1.2-1.3-1.8-2.5
			l-13-26.5c-1.6-3.5-2.6-6.1-3-7.7h-0.8c0.3,2.4,0.5,5,0.5,7.9v29.5h-10.4v-45.7c0-2.6,1.3-4,4-4h6.7c1.1,0,2,0.3,2.6,0.8
			c0.6,0.5,1.2,1.3,1.8,2.5l12.6,25.7c1.2,2.4,2.4,5.1,3.6,8h0.7c-0.3-3.7-0.4-6.5-0.4-8.4v-28.6H149.6z"/>
		<path id="XMLID_9_" class="st1" d="M162.6,439.1c3.1-3.7,8.6-5.5,16.6-5.5c8,0,13.5,1.8,16.6,5.5c3.1,3.7,4.7,10.4,4.7,20.3
			s-1.6,16.6-4.7,20.3c-3.1,3.7-8.7,5.5-16.6,5.5c-8,0-13.5-1.8-16.6-5.5c-3.1-3.7-4.6-10.4-4.6-20.3S159.5,442.8,162.6,439.1z
			 M186.9,446c-1.4-2.4-3.9-3.5-7.7-3.5s-6.3,1.2-7.7,3.5c-1.4,2.4-2.1,6.8-2.1,13.4s0.7,11,2.1,13.4c1.4,2.4,3.9,3.5,7.7,3.5
			s6.3-1.2,7.7-3.5c1.4-2.4,2.1-6.8,2.1-13.4S188.3,448.4,186.9,446z"/>
		<path id="XMLID_14_" class="st1" d="M271.9,434.6l-7.8,46.7c-0.2,0.9-0.6,1.6-1.4,2.2c-0.7,0.6-1.6,0.8-2.6,0.8h-10.5
			c-1,0-1.9-0.3-2.6-0.9c-0.7-0.6-1.2-1.3-1.3-2.2l-5.4-32.5c-0.4-2.1-0.7-4.2-0.9-6.3h-1.4c0,0.1-0.1,1-0.3,2.7
			c-0.2,1.6-0.4,2.9-0.5,3.7l-5.3,32.4c-0.1,0.9-0.6,1.7-1.3,2.2c-0.7,0.6-1.6,0.9-2.6,0.9h-10.5c-1,0-1.8-0.3-2.6-0.8
			c-0.7-0.6-1.2-1.3-1.4-2.2l-7.8-46.7h11.2l4.8,34.5c0.3,2.2,0.5,4.6,0.6,7.2h1.4c0.1-1.3,0.5-3.7,1.1-7.2l5.3-31.1
			c0.1-1,0.6-1.8,1.3-2.4c0.7-0.6,1.6-0.9,2.6-0.9h9.5c1,0,1.9,0.3,2.6,0.9c0.7,0.6,1.1,1.4,1.3,2.4l5.3,31.2c0.6,3.6,0.9,5.9,1,7.1
			h1.5c0.2-2.7,0.4-5.1,0.6-7.1l4.9-34.6H271.9z"/>
		<path id="XMLID_17_" class="st1" d="M304.2,471.2h-17.1l-3.6,13h-11.2l14.3-46.8c0.2-0.9,0.6-1.6,1.4-2.1c0.7-0.5,1.5-0.8,2.4-0.8
			h10.4c2.1,0,3.3,1,3.8,2.9l14.3,46.8h-11.2L304.2,471.2z M301.8,462.7l-4.2-15.2c-0.6-2.4-0.9-4-1-4.7h-1.9
			c-0.1,0.5-0.3,1.2-0.5,2.3c-0.2,1.1-0.4,1.8-0.6,2.4l-4.2,15.2H301.8z"/>
		<path id="XMLID_20_" class="st1" d="M363.3,471.2h-17.1l-3.6,13h-11.2l14.3-46.8c0.2-0.9,0.6-1.6,1.4-2.1c0.7-0.5,1.5-0.8,2.4-0.8
			h10.4c2.1,0,3.3,1,3.8,2.9l14.3,46.8h-11.2L363.3,471.2z M361,462.7l-4.2-15.2c-0.6-2.4-0.9-4-1-4.7h-1.9
			c-0.1,0.5-0.3,1.2-0.5,2.3c-0.2,1.1-0.4,1.8-0.6,2.4l-4.2,15.2H361z"/>
		<path id="XMLID_23_" class="st1" d="M444.8,434.6l-7.8,46.7c-0.2,0.9-0.6,1.6-1.4,2.2c-0.7,0.6-1.6,0.8-2.6,0.8h-10.5
			c-1,0-1.9-0.3-2.6-0.9c-0.7-0.6-1.2-1.3-1.3-2.2l-5.4-32.5c-0.4-2.1-0.7-4.2-0.9-6.3H411c0,0.1-0.1,1-0.3,2.7
			c-0.2,1.6-0.4,2.9-0.5,3.7l-5.3,32.4c-0.1,0.9-0.6,1.7-1.3,2.2c-0.7,0.6-1.6,0.9-2.6,0.9h-10.5c-1,0-1.8-0.3-2.6-0.8
			c-0.7-0.6-1.2-1.3-1.4-2.2l-7.8-46.7h11.2l4.8,34.5c0.3,2.2,0.5,4.6,0.6,7.2h1.4c0.1-1.3,0.5-3.7,1.1-7.2l5.3-31.1
			c0.1-1,0.6-1.8,1.3-2.4c0.7-0.6,1.6-0.9,2.6-0.9h9.5c1,0,1.9,0.3,2.6,0.9c0.7,0.6,1.1,1.4,1.3,2.4l5.3,31.2c0.6,3.6,0.9,5.9,1,7.1
			h1.5c0.2-2.7,0.4-5.1,0.6-7.1l4.9-34.6H444.8z"/>
		<path id="XMLID_25_" class="st1" d="M477.2,471.2h-17.1l-3.6,13h-11.2l14.3-46.8c0.2-0.9,0.6-1.6,1.4-2.1c0.7-0.5,1.5-0.8,2.4-0.8
			h10.4c2.1,0,3.3,1,3.8,2.9l14.3,46.8h-11.2L477.2,471.2z M474.8,462.7l-4.2-15.2c-0.6-2.4-0.9-4-1-4.7h-1.9
			c-0.1,0.5-0.3,1.2-0.5,2.3c-0.2,1.1-0.4,1.8-0.6,2.4l-4.2,15.2H474.8z"/>
		<path id="XMLID_28_" class="st1" d="M536.2,484.2h-11.6l-3.7-15.2c-0.5-1.6-1.1-2.7-1.9-3.3c-0.8-0.6-1.9-0.9-3.4-0.9l-7.7-0.1
			v19.4H497v-49.7c4.5-0.4,10.8-0.6,18.9-0.6c6.7,0,11.4,1.1,14.2,3.2c2.8,2.1,4.2,6,4.2,11.5c0,3.6-0.7,6.5-2.2,8.6
			c-1.5,2.1-3.9,3.3-7.3,3.7v0.4c3.8,0.9,6.1,3.4,7.1,7.5L536.2,484.2z M507.8,456.4h7.9c2.9,0,4.8-0.5,5.9-1.5
			c1.1-1,1.6-2.8,1.6-5.6c0-2.7-0.5-4.6-1.5-5.5c-1-1-3-1.4-5.9-1.4l-7.9,0.1V456.4z"/>
		<path id="XMLID_31_" class="st1" d="M554.3,484.2h-10.9v-49.7h10.9V484.2z"/>
		<path id="XMLID_33_" class="st1" d="M591.3,471.2h-17.1l-3.6,13h-11.2l14.3-46.8c0.2-0.9,0.6-1.6,1.4-2.1c0.7-0.5,1.5-0.8,2.4-0.8
			h10.4c2.1,0,3.3,1,3.8,2.9l14.3,46.8h-11.2L591.3,471.2z M588.9,462.7l-4.2-15.2c-0.6-2.4-0.9-4-1-4.7h-1.9
			c-0.1,0.5-0.3,1.2-0.5,2.3c-0.2,1.1-0.4,1.8-0.6,2.4l-4.2,15.2H588.9z"/>
	</g>
</g>
</svg>
