<?xml version="1.0" encoding="utf-8"?>
<!-- Generator: Adobe Illustrator 19.0.0, SVG Export Plug-In . SVG Version: 6.00 Build 0)  -->
<svg version="1.1" id="Warstwa_1" xmlns="http://www.w3.org/2000/svg" xmlns:xlink="http://www.w3.org/1999/xlink" x="0px" y="0px"
	 viewBox="0 0 708.7 708.7" style="enable-background:new 0 0 708.7 708.7;" xml:space="preserve">
<style type="text/css">
	.st0{fill:#154A90;}
	.st1{fill:#FFFFFF;}
</style>
<g>
	<g id="XMLID_10_">
		<path id="XMLID_25_" class="st0" d="M335.2,77.5l-227.8,117c-17.2,8.8-27.8,25.2-27.8,42.9v234c0,17.7,10.6,34,27.8,42.9
			l227.8,117c17.2,8.8,38.4,8.8,55.6,0l227.8-117c17.2-8.8,27.8-25.2,27.8-42.9v-234c0-17.7-10.6-34-27.8-42.9l-227.8-117
			C373.6,68.7,352.4,68.7,335.2,77.5z"/>
	</g>
	<g>
		<path class="st1" d="M258.4,487.5v-49.7c4.5-0.4,10.8-0.6,18.9-0.6c7,0,11.7,1.1,14.3,3.4c2.6,2.3,3.9,6.5,3.9,12.8
			s-1.2,10.6-3.6,12.9c-2.4,2.3-6.8,3.4-13.1,3.4c-3.2,0-6.3-0.2-9.4-0.6v18.4H258.4z M269.3,461.2h7.7c2.8,0,4.8-0.6,5.8-1.7
			c1-1.1,1.5-3.1,1.5-6.2c0-3.1-0.5-5.1-1.5-6.2c-1-1.1-3-1.6-5.8-1.6l-7.7,0.1V461.2z"/>
		<path class="st1" d="M327.1,474.4H310l-3.6,13h-11.2l14.3-46.8c0.2-0.9,0.6-1.6,1.4-2.1c0.7-0.5,1.5-0.8,2.4-0.8h10.4
			c2.1,0,3.3,1,3.8,2.9l14.3,46.8h-11.2L327.1,474.4z M324.7,465.9l-4.2-15.2c-0.6-2.4-0.9-4-1-4.7h-1.9c-0.1,0.5-0.3,1.2-0.5,2.3
			c-0.2,1.1-0.4,1.8-0.6,2.4l-4.2,15.2H324.7z"/>
		<path class="st1" d="M388.8,437.8v45.7c0,2.6-1.3,4-3.9,4h-6.8c-1.1,0-2-0.3-2.6-0.8c-0.6-0.5-1.2-1.3-1.8-2.5l-13-26.5
			c-1.6-3.5-2.6-6.1-3-7.7h-0.8c0.3,2.4,0.5,5,0.5,7.9v29.5h-10.4v-45.7c0-2.6,1.3-4,4-4h6.7c1.1,0,2,0.3,2.6,0.8
			c0.6,0.5,1.2,1.3,1.8,2.5l12.6,25.7c1.2,2.4,2.4,5.1,3.6,8h0.7c-0.3-3.7-0.4-6.5-0.4-8.4v-28.6H388.8z"/>
		<path class="st1" d="M432,478.9l0.5,8.1c-4.5,0.5-12.2,0.7-23,0.7c-3.3,0-6-0.9-7.9-2.7c-2-1.8-3-4.2-3-7.3v-30.1
			c0-3.1,1.1-5.5,3-7.3c2-1.8,4.6-2.7,7.9-2.7c10.8,0,18.5,0.2,23,0.7l-0.5,8.1h-19.1c-1.2,0-2.1,0.3-2.6,0.9
			c-0.5,0.6-0.8,1.5-0.8,2.8v7.6h19.8v7.9h-19.8v9.6c0,1.3,0.3,2.3,0.8,2.9c0.5,0.6,1.4,0.9,2.6,0.9H432z"/>
		<path class="st1" d="M451.2,437.8v37.1c0,1.3,0.3,2.2,0.9,2.8c0.6,0.6,1.6,0.9,3,0.9h17.1l0.5,8.4c-4.8,0.5-11.9,0.8-21,0.8
			c-3.8,0-6.7-1-8.6-2.9c-1.9-1.9-2.8-4.5-2.8-7.7v-39.3H451.2z"/>
	</g>
	<g>
		<path class="st1" d="M529.1,245.7c-9.5-22.3-22.3-41.5-38.5-57.6c-16.1-16.1-35.3-28.9-57.6-38.5c-22.3-9.5-45.6-14.3-70.1-14.3
			c-24.4,0-47.8,4.8-70.1,14.3c-22.3,9.5-41.5,22.3-57.6,38.5c-16.1,16.1-28.9,35.3-38.5,57.6c-9.5,22.3-14.3,45.6-14.3,70.1
			c0,35.2,9.5,67.6,28.4,97.2c2.5,3.9,6.2,5.8,10.9,5.8h282.3c4.7,0,8.3-1.9,10.9-5.8c18.9-29.8,28.4-62.2,28.4-97.2
			C543.4,291.3,538.6,267.9,529.1,245.7z M344.8,168.6c5-5,11.1-7.6,18.2-7.6c7.1,0,13.2,2.5,18.2,7.6c5,5,7.6,11.1,7.6,18.2
			c0,7.1-2.5,13.2-7.6,18.2c-5,5-11.1,7.6-18.2,7.6c-7.1,0-13.2-2.5-18.2-7.6c-5-5-7.5-11.1-7.5-18.2S339.7,173.7,344.8,168.6z
			 M252.4,333.9c-5,5-11.1,7.6-18.2,7.6c-7.1,0-13.2-2.5-18.2-7.6c-5-5-7.5-11.1-7.5-18.2c0-7.1,2.5-13.2,7.5-18.2
			c5-5,11.1-7.6,18.2-7.6c7.1,0,13.2,2.5,18.2,7.6c5,5,7.5,11.1,7.5,18.2C259.9,322.8,257.4,328.9,252.4,333.9z M291,243.7
			c-5,5-11.1,7.6-18.2,7.6s-13.2-2.5-18.2-7.6c-5-5-7.5-11.1-7.5-18.2c0-7.1,2.5-13.2,7.5-18.2c5-5,11.1-7.6,18.2-7.6
			c7.1,0,13.2,2.5,18.2,7.6c5,5,7.5,11.1,7.5,18.2C298.6,232.6,296.1,238.7,291,243.7z M405.1,245.5l-20.3,76.9
			c6.7,4.6,11.5,10.7,14.5,18.3c2.9,7.7,3.4,15.5,1.2,23.6c-2.7,10.3-8.7,18.2-17.9,23.6c-9.3,5.4-19.1,6.7-29.4,4
			c-10.3-2.7-18.2-8.7-23.6-17.9c-5.4-9.3-6.7-19.1-4-29.4c2.1-8,6.4-14.7,12.7-19.8c6.3-5.2,13.5-8.1,21.5-8.8l20.3-76.9
			c0.9-3.5,3-6.1,6-8c3.1-1.8,6.3-2.2,9.7-1.3c3.4,0.9,5.9,2.9,7.8,5.9C405.4,238.7,405.9,242,405.1,245.5z M435,243.7
			c-5-5-7.6-11.1-7.6-18.2c0-7.1,2.5-13.2,7.6-18.2c5-5,11.1-7.6,18.2-7.6c7.1,0,13.2,2.5,18.2,7.6c5,5,7.6,11.1,7.6,18.2
			c0,7.1-2.5,13.2-7.6,18.2c-5,5-11.1,7.6-18.2,7.6C446.1,251.3,440,248.8,435,243.7z M510.1,333.9c-5,5-11.1,7.6-18.2,7.6
			c-7.1,0-13.2-2.5-18.2-7.6c-5-5-7.6-11.1-7.6-18.2c0-7.1,2.5-13.2,7.6-18.2c5-5,11.1-7.6,18.2-7.6c7.1,0,13.2,2.5,18.2,7.6
			c5,5,7.5,11.1,7.5,18.2C517.6,322.8,515.1,328.9,510.1,333.9z"/>
	</g>
</g>
</svg>
