<?xml version="1.0" encoding="utf-8"?>
<!-- Generator: Adobe Illustrator 19.0.0, SVG Export Plug-In . SVG Version: 6.00 Build 0)  -->
<svg version="1.1" id="Warstwa_1" xmlns="http://www.w3.org/2000/svg" xmlns:xlink="http://www.w3.org/1999/xlink" x="0px" y="0px"
	 viewBox="0 0 708.7 708.7" style="enable-background:new 0 0 708.7 708.7;" xml:space="preserve">
<style type="text/css">
	.st0{fill:#154A90;}
	.st1{fill:#FFFFFF;}
</style>
<g id="XMLID_3_">
	<g id="XMLID_10_">
		<path id="XMLID_25_" class="st0" d="M326.5,77.5l-227.8,117c-17.2,8.8-27.8,25.2-27.8,42.9v234c0,17.7,10.6,34,27.8,42.9
			l227.8,117c17.2,8.8,38.4,8.8,55.6,0l227.8-117c17.2-8.8,27.8-25.2,27.8-42.9v-234c0-17.7-10.6-34-27.8-42.9l-227.8-117
			C364.9,68.7,343.7,68.7,326.5,77.5z"/>
	</g>
	<g id="XMLID_1_">
		<path id="XMLID_7_" class="st1" d="M185,479.1v8.4h-36.3v-8.4l23.6-32.8h-23v-8.4h35.1v8.4l-23.6,32.8H185z"/>
		<path id="XMLID_11_" class="st1" d="M230.1,458.9v28.7H222l-1-5c-3.8,3.9-8.6,5.9-14.3,5.9c-5.6,0-9.6-2-12.1-6.1
			c-2.5-4.1-3.7-10.7-3.7-19.8c0-9.7,1.6-16.4,4.9-20.1c3.3-3.7,9.1-5.5,17.3-5.5c6,0,11.1,0.6,15.3,1.7l-0.9,8.1
			c-5.4-0.2-10.1-0.4-14-0.4c-2.2,0-3.9,0.2-5.2,0.5c-1.3,0.4-2.4,1.1-3.3,2.3c-1,1.2-1.6,2.9-1.9,5c-0.3,2.1-0.5,5-0.5,8.7
			c0,6.2,0.6,10.4,1.7,12.7c1.2,2.3,3.3,3.5,6.4,3.5c2.9,0,5.9-0.8,8.9-2.5v-17.7H230.1z"/>
		<path id="XMLID_22_" class="st1" d="M271,478.6l0.5,8.4c-4.8,0.5-11.9,0.8-21,0.8c-3.8,0-6.7-1-8.6-2.9c-1.9-1.9-2.8-4.5-2.8-7.7
			v-12l-4.2,1.7V461l4.2-1.7v-21.5H250v17.1l7.8-3.1v5.9l-7.8,3.1v14.1c0,1.3,0.3,2.2,0.9,2.8c0.6,0.6,1.6,0.9,3,0.9H271z"/>
		<path id="XMLID_26_" class="st1" d="M279.8,442.4c3.1-3.7,8.6-5.5,16.6-5.5c8,0,13.5,1.8,16.6,5.5c3.1,3.7,4.7,10.4,4.7,20.3
			s-1.6,16.6-4.7,20.3c-3.1,3.7-8.7,5.5-16.6,5.5c-8,0-13.5-1.8-16.6-5.5c-3.1-3.7-4.6-10.4-4.6-20.3S276.7,446.1,279.8,442.4z
			 M304,449.3c-1.4-2.4-3.9-3.5-7.7-3.5s-6.3,1.2-7.7,3.5c-1.4,2.4-2.1,6.8-2.1,13.4s0.7,11,2.1,13.4c1.4,2.4,3.9,3.5,7.7,3.5
			s6.3-1.2,7.7-3.5c1.4-2.4,2.1-6.8,2.1-13.4S305.4,451.7,304,449.3z"/>
		<path id="XMLID_29_" class="st1" d="M344.4,468.8l-10-3.5c-3.7-1.3-6.3-3.2-7.9-5.5c-1.6-2.3-2.4-5.3-2.4-9.1c0-5.5,1.3-9.1,4-11
			c2.7-1.8,7.4-2.8,14.1-2.8c6.3,0,11.8,0.6,16.3,1.9l-0.7,7.5c-4.2-0.1-9.4-0.2-15.6-0.2c-2.9,0-4.8,0.3-5.8,0.8
			c-1,0.5-1.4,1.8-1.4,3.8c0,1.6,0.4,2.8,1.1,3.5c0.7,0.7,2.1,1.4,4.1,2.1l9.4,3.2c3.8,1.3,6.6,3.2,8.1,5.5s2.4,5.4,2.4,9.1
			c0,5.6-1.3,9.3-4,11.3c-2.7,2-7.5,3-14.4,3c-5.6,0-11.3-0.6-17.1-1.9l0.6-7.9c10.2,0.2,15.7,0.4,16.4,0.4c2.9,0,4.9-0.3,5.9-0.9
			c1-0.6,1.5-1.9,1.5-3.9c0-1.7-0.3-2.9-1-3.6C347.4,470,346.2,469.3,344.4,468.8z"/>
		<path id="XMLID_31_" class="st1" d="M402.1,479.1v8.4h-36.3v-8.4l23.6-32.8h-23v-8.4h35.1v8.4l-23.6,32.8H402.1z"/>
		<path id="XMLID_33_" class="st1" d="M412.5,442.4c3.1-3.7,8.6-5.5,16.6-5.5c8,0,13.5,1.8,16.6,5.5c3.1,3.7,4.7,10.4,4.7,20.3
			s-1.6,16.6-4.7,20.3c-3.1,3.7-8.7,5.5-16.6,5.5c-8,0-13.5-1.8-16.6-5.5c-3.1-3.7-4.6-10.4-4.6-20.3S409.4,446.1,412.5,442.4z
			 M436.8,449.3c-1.4-2.4-3.9-3.5-7.7-3.5s-6.3,1.2-7.7,3.5c-1.4,2.4-2.1,6.8-2.1,13.4s0.7,11,2.1,13.4c1.4,2.4,3.9,3.5,7.7,3.5
			s6.3-1.2,7.7-3.5c1.4-2.4,2.1-6.8,2.1-13.4S438.2,451.7,436.8,449.3z"/>
		<path id="XMLID_36_" class="st1" d="M500.7,437.9v45.7c0,2.6-1.3,4-3.9,4H490c-1.1,0-2-0.3-2.6-0.8c-0.6-0.5-1.2-1.3-1.8-2.5
			l-13-26.5c-1.6-3.5-2.6-6.1-3-7.7h-0.8c0.3,2.4,0.5,5,0.5,7.9v29.5h-10.4v-45.7c0-2.6,1.3-4,4-4h6.7c1.1,0,2,0.3,2.6,0.8
			c0.6,0.5,1.2,1.3,1.8,2.5l12.6,25.7c1.2,2.4,2.4,5.1,3.6,8h0.7c-0.3-3.7-0.4-6.5-0.4-8.4v-28.6H500.7z"/>
		<path id="XMLID_38_" class="st1" d="M543.8,479l0.5,8.1c-4.5,0.5-12.2,0.7-23,0.7c-3.3,0-6-0.9-7.9-2.7c-2-1.8-3-4.2-3-7.3v-30.1
			c0-3.1,1.1-5.5,3-7.3c2-1.8,4.6-2.7,7.9-2.7c10.8,0,18.5,0.2,23,0.7l-0.5,8.1h-19.1c-1.2,0-2.1,0.3-2.6,0.9
			c-0.5,0.6-0.8,1.5-0.8,2.8v7.6h19.8v7.9h-19.8v9.6c0,1.3,0.3,2.3,0.8,2.9c0.5,0.6,1.4,0.9,2.6,0.9H543.8z"/>
		<path id="XMLID_40_" class="st1" d="M251.6,537.5h-17.1l-3.6,13h-11.2l14.3-46.8c0.2-0.9,0.6-1.6,1.4-2.1c0.7-0.5,1.5-0.8,2.4-0.8
			h10.4c2.1,0,3.3,1,3.8,2.9l14.3,46.8h-11.2L251.6,537.5z M249.2,529l-4.2-15.2c-0.6-2.4-0.9-4-1-4.7h-1.9
			c-0.1,0.5-0.3,1.2-0.5,2.3c-0.2,1.1-0.4,1.8-0.6,2.4l-4.2,15.2H249.2z"/>
		<path id="XMLID_43_" class="st1" d="M333.1,500.9l-7.8,46.7c-0.2,0.9-0.6,1.6-1.4,2.2c-0.7,0.6-1.6,0.8-2.6,0.8h-10.5
			c-1,0-1.9-0.3-2.6-0.9s-1.2-1.3-1.3-2.2l-5.4-32.5c-0.4-2.1-0.7-4.2-0.9-6.3h-1.4c0,0.1-0.1,1-0.3,2.7s-0.4,2.9-0.5,3.7l-5.3,32.4
			c-0.1,0.9-0.6,1.7-1.3,2.2c-0.7,0.6-1.6,0.9-2.6,0.9h-10.5c-1,0-1.8-0.3-2.6-0.8c-0.7-0.6-1.2-1.3-1.4-2.2l-7.8-46.7H278l4.8,34.5
			c0.3,2.2,0.5,4.6,0.6,7.2h1.4c0.1-1.3,0.5-3.7,1.1-7.2l5.3-31.1c0.1-1,0.6-1.8,1.3-2.4c0.7-0.6,1.6-0.9,2.6-0.9h9.5
			c1,0,1.9,0.3,2.6,0.9c0.7,0.6,1.1,1.4,1.3,2.4l5.3,31.2c0.6,3.6,0.9,5.9,1,7.1h1.5c0.2-2.7,0.4-5.1,0.6-7.1l4.9-34.6H333.1z"/>
		<path id="XMLID_45_" class="st1" d="M365.4,537.5h-17.1l-3.6,13h-11.2l14.3-46.8c0.2-0.9,0.6-1.6,1.4-2.1c0.7-0.5,1.5-0.8,2.4-0.8
			H362c2.1,0,3.3,1,3.8,2.9l14.3,46.8H369L365.4,537.5z M363,529l-4.2-15.2c-0.6-2.4-0.9-4-1-4.7h-1.9c-0.1,0.5-0.3,1.2-0.5,2.3
			c-0.2,1.1-0.4,1.8-0.6,2.4l-4.2,15.2H363z"/>
		<path id="XMLID_48_" class="st1" d="M424.5,550.5h-11.6l-3.7-15.2c-0.5-1.6-1.1-2.7-1.9-3.3c-0.8-0.6-1.9-0.9-3.4-0.9l-7.7-0.1
			v19.4h-10.8v-49.7c4.5-0.4,10.8-0.6,18.9-0.6c6.7,0,11.4,1.1,14.2,3.2c2.8,2.1,4.2,6,4.2,11.5c0,3.6-0.7,6.5-2.2,8.6
			c-1.5,2.1-3.9,3.3-7.3,3.7v0.4c3.8,0.9,6.1,3.4,7.1,7.5L424.5,550.5z M396.1,522.7h7.9c2.9,0,4.8-0.5,5.9-1.5
			c1.1-1,1.6-2.8,1.6-5.6c0-2.7-0.5-4.6-1.5-5.5c-1-1-3-1.4-5.9-1.4l-7.9,0.1V522.7z"/>
		<path id="XMLID_51_" class="st1" d="M442.5,550.5h-10.9v-49.7h10.9V550.5z"/>
		<path id="XMLID_53_" class="st1" d="M485.7,542l0.5,8.1c-4.5,0.5-12.2,0.7-23,0.7c-3.3,0-6-0.9-7.9-2.7c-2-1.8-3-4.2-3-7.3v-30.1
			c0-3.1,1.1-5.5,3-7.3c2-1.8,4.6-2.7,7.9-2.7c10.8,0,18.5,0.2,23,0.7l-0.5,8.1h-19.1c-1.2,0-2.1,0.3-2.6,0.9
			c-0.5,0.6-0.8,1.5-0.8,2.8v7.6H483v7.9h-19.8v9.6c0,1.3,0.3,2.3,0.8,2.9c0.5,0.6,1.4,0.9,2.6,0.9H485.7z"/>
	</g>
	<g id="XMLID_2_">
		<g id="XMLID_5_">
			<path id="XMLID_19_" class="st1" d="M271.1,149.6c-18.7,0-33.9,15.2-33.9,33.9s15.2,33.9,33.9,33.9s33.9-15.2,33.9-33.9
				S289.8,149.6,271.1,149.6z M271.1,203.1c-10.8,0-19.6-8.8-19.6-19.6c0-10.8,8.8-19.6,19.6-19.6s19.6,8.8,19.6,19.6
				C290.7,194.3,281.9,203.1,271.1,203.1z"/>
			<path id="XMLID_16_" class="st1" d="M271.1,243.2c-18.7,0-33.9,15.2-33.9,33.9s15.2,33.9,33.9,33.9s33.9-15.2,33.9-33.9
				S289.8,243.2,271.1,243.2z M271.1,296.7c-10.8,0-19.6-8.8-19.6-19.6s8.8-19.6,19.6-19.6s19.6,8.8,19.6,19.6
				S281.9,296.7,271.1,296.7z"/>
			<path id="XMLID_12_" class="st1" d="M271.1,336.8c-18.7,0-33.9,15.2-33.9,33.9c0,18.7,15.2,33.9,33.9,33.9s33.9-15.2,33.9-33.9
				C305,352,289.8,336.8,271.1,336.8z M271.1,390.3c-10.8,0-19.6-8.8-19.6-19.6c0-10.8,8.8-19.6,19.6-19.6s19.6,8.8,19.6,19.6
				C290.7,381.5,281.9,390.3,271.1,390.3z"/>
			<path id="XMLID_9_" class="st1" d="M337,189h127.3c4,0,7.2-3.2,7.2-7.2s-3.2-7.2-7.2-7.2H337c-4,0-7.2,3.2-7.2,7.2
				S333.1,189,337,189z"/>
			<path id="XMLID_6_" class="st1" d="M462.6,269.9H335.3c-4,0-7.2,3.2-7.2,7.2s3.2,7.2,7.2,7.2h127.3c4,0,7.2-3.2,7.2-7.2
				S466.6,269.9,462.6,269.9z"/>
		</g>
		<path id="XMLID_4_" class="st1" d="M335.3,377.9h127.3c4,0,7.2-3.2,7.2-7.2s-3.2-7.2-7.2-7.2H335.3c-4,0-7.2,3.2-7.2,7.2
			S331.3,377.9,335.3,377.9z"/>
	</g>
</g>
</svg>
