<?xml version="1.0" encoding="utf-8"?>
<!-- Generator: Adobe Illustrator 19.0.0, SVG Export Plug-In . SVG Version: 6.00 Build 0)  -->
<svg version="1.1" id="Warstwa_1" xmlns="http://www.w3.org/2000/svg" xmlns:xlink="http://www.w3.org/1999/xlink" x="0px" y="0px"
	 viewBox="0 0 708.7 708.7" style="enable-background:new 0 0 708.7 708.7;" xml:space="preserve">
<style type="text/css">
	.st0{fill:#154A90;}
	.st1{fill:#FFFFFF;}
</style>
<g>
	<g id="XMLID_10_">
		<path id="XMLID_13_" class="st0" d="M326.5,77.4l-227.8,117c-17.2,8.8-27.8,25.2-27.8,42.9v234c0,17.7,10.6,34,27.8,42.9
			l227.8,117c17.2,8.8,38.4,8.8,55.6,0l227.8-117c17.2-8.8,27.8-25.2,27.8-42.9v-234c0-17.7-10.6-34-27.8-42.9l-227.8-117
			C364.9,68.6,343.8,68.6,326.5,77.4z"/>
	</g>
	<g>
		<path class="st1" d="M138.4,478.8l0.5,8.1c-4.5,0.5-12.2,0.7-23,0.7c-3.3,0-6-0.9-7.9-2.7c-2-1.8-3-4.2-3-7.3v-30.1
			c0-3.1,1.1-5.5,3-7.3c2-1.8,4.6-2.7,7.9-2.7c10.8,0,18.5,0.2,23,0.7l-0.5,8.1h-19.1c-1.2,0-2.1,0.3-2.6,0.9
			c-0.5,0.6-0.8,1.5-0.8,2.8v7.6h19.8v7.9h-19.8v9.6c0,1.3,0.3,2.3,0.8,2.9c0.5,0.6,1.4,0.9,2.6,0.9H138.4z"/>
		<path class="st1" d="M146.8,487.4v-49.7c6.8-0.4,13.2-0.6,19.3-0.6c7.9,0,13.4,1.8,16.5,5.5c3.1,3.6,4.6,10.3,4.6,20
			c0,9.7-1.5,16.4-4.6,20c-3.1,3.6-8.6,5.5-16.5,5.5C160.1,488.1,153.6,487.8,146.8,487.4z M157.8,445.7v33.6c0.8,0,2.1,0,4,0
			c1.8,0,3.3,0,4.4,0c3.7,0,6.2-1.2,7.6-3.5c1.4-2.4,2.1-6.8,2.1-13.3c0-6.5-0.7-11-2.1-13.4c-1.4-2.4-3.9-3.6-7.6-3.6L157.8,445.7z
			"/>
		<path class="st1" d="M216.7,471v16.4h-11V471l-16.4-33.3h11.4l8.3,18.2c0.5,1.1,1.1,3.1,1.9,6.3h0.7c0.6-2.6,1.2-4.7,1.8-6.3
			l8.3-18.2h11.3L216.7,471z"/>
		<path class="st1" d="M270.8,478.1l0.9,8.1c-4.3,1.3-9.6,2-15.9,2c-7.7,0-13.1-1.9-16.2-5.8c-3.1-3.8-4.7-10.5-4.7-19.9
			c0-9.5,1.6-16.1,4.7-19.9c3.1-3.8,8.5-5.8,16.2-5.8c5.6,0,10.5,0.6,14.9,1.7l-0.9,8.2c-3.9-0.2-8.5-0.4-14-0.4
			c-3.6,0-6.1,1.1-7.4,3.4c-1.3,2.3-2,6.5-2,12.8c0,6.2,0.7,10.5,2,12.8c1.3,2.3,3.8,3.4,7.4,3.4
			C262.5,478.8,267.5,478.6,270.8,478.1z"/>
		<path class="st1" d="M295.5,437.7V477c0,3.6-1,6.4-3,8.4c-2,2-4.7,3-8.3,3c-4,0-7-0.5-9.1-1.4l1.2-7.3h3.4c3.2,0,4.8-1.3,4.8-3.8
			v-37.9H295.5z"/>
		<path class="st1" d="M332.3,474.4h-17.1l-3.6,13h-11.2l14.3-46.8c0.2-0.9,0.6-1.6,1.4-2.1c0.7-0.5,1.5-0.8,2.4-0.8h10.4
			c2.1,0,3.3,1,3.8,2.9l14.3,46.8h-11.2L332.3,474.4z M329.9,465.9l-4.2-15.2c-0.6-2.4-0.9-4-1-4.7h-1.9c-0.1,0.5-0.3,1.2-0.5,2.3
			c-0.2,1.1-0.4,1.8-0.6,2.4l-4.2,15.2H329.9z"/>
		<path class="st1" d="M391.4,474.4h-17.1l-3.6,13h-11.2l14.3-46.8c0.2-0.9,0.6-1.6,1.4-2.1c0.7-0.5,1.5-0.8,2.4-0.8H388
			c2.1,0,3.3,1,3.8,2.9l14.3,46.8H395L391.4,474.4z M389,465.9l-4.2-15.2c-0.6-2.4-0.9-4-1-4.7h-1.9c-0.1,0.5-0.3,1.2-0.5,2.3
			c-0.2,1.1-0.4,1.8-0.6,2.4l-4.2,15.2H389z"/>
		<path class="st1" d="M472.9,437.7l-7.8,46.7c-0.2,0.9-0.6,1.6-1.4,2.2c-0.7,0.6-1.6,0.8-2.6,0.8h-10.5c-1,0-1.9-0.3-2.6-0.9
			c-0.7-0.6-1.2-1.3-1.3-2.2l-5.4-32.5c-0.4-2.1-0.7-4.2-0.9-6.3h-1.4c0,0.1-0.1,1-0.3,2.7c-0.2,1.6-0.4,2.9-0.5,3.7l-5.3,32.4
			c-0.1,0.9-0.6,1.7-1.3,2.2c-0.7,0.6-1.6,0.9-2.6,0.9h-10.5c-1,0-1.8-0.3-2.6-0.8c-0.7-0.6-1.2-1.3-1.4-2.2l-7.8-46.7h11.2
			l4.8,34.5c0.3,2.2,0.5,4.6,0.6,7.2h1.4c0.1-1.3,0.5-3.7,1.1-7.2l5.3-31.1c0.1-1,0.6-1.8,1.3-2.4c0.7-0.6,1.6-0.9,2.6-0.9h9.5
			c1,0,1.9,0.3,2.6,0.9c0.7,0.6,1.1,1.4,1.3,2.4l5.3,31.2c0.6,3.6,0.9,5.9,1,7.1h1.5c0.2-2.7,0.4-5.1,0.6-7.1l4.9-34.6H472.9z"/>
		<path class="st1" d="M505.2,474.4h-17.1l-3.6,13h-11.2l14.3-46.8c0.2-0.9,0.6-1.6,1.4-2.1c0.7-0.5,1.5-0.8,2.4-0.8h10.4
			c2.1,0,3.3,1,3.8,2.9l14.3,46.8h-11.2L505.2,474.4z M502.8,465.9l-4.2-15.2c-0.6-2.4-0.9-4-1-4.7h-1.9c-0.1,0.5-0.3,1.2-0.5,2.3
			c-0.2,1.1-0.4,1.8-0.6,2.4l-4.2,15.2H502.8z"/>
		<path class="st1" d="M564.3,487.4h-11.6l-3.7-15.2c-0.5-1.6-1.1-2.7-1.9-3.3c-0.8-0.6-1.9-0.9-3.4-0.9l-7.7-0.1v19.4h-10.8v-49.7
			c4.5-0.4,10.8-0.6,18.9-0.6c6.7,0,11.4,1.1,14.2,3.2c2.8,2.1,4.2,6,4.2,11.5c0,3.6-0.7,6.5-2.2,8.6c-1.5,2.1-3.9,3.3-7.3,3.7v0.4
			c3.8,0.9,6.1,3.4,7.1,7.5L564.3,487.4z M535.9,459.5h7.9c2.9,0,4.8-0.5,5.9-1.5c1.1-1,1.6-2.8,1.6-5.6c0-2.7-0.5-4.6-1.5-5.5
			c-1-1-3-1.4-5.9-1.4l-7.9,0.1V459.5z"/>
		<path class="st1" d="M582.3,487.4h-10.9v-49.7h10.9V487.4z"/>
		<path class="st1" d="M603.4,487.4h-10.9v-49.7h10.9V487.4z"/>
	</g>
	<g>
		<g>
			<path class="st1" d="M270.6,148c-18.4,0-33.4,15-33.4,33.4s15,33.4,33.4,33.4s33.4-15,33.4-33.4S288.9,148,270.6,148z
				 M270.6,201.8c-11.3,0-20.5-9.2-20.5-20.5c0-11.3,9.2-20.5,20.5-20.5c11.3,0,20.5,9.2,20.5,20.5
				C291.1,192.7,281.8,201.8,270.6,201.8z"/>
			<path class="st1" d="M286.6,288.3c-2.2,2.8-1.8,6.8,1,9.1c1.2,1,2.6,1.4,4,1.4c1.9,0,3.8-0.8,5-2.4c2.2-2.8,1.8-6.8-1-9.1
				C292.8,285,288.8,285.5,286.6,288.3z"/>
			<path class="st1" d="M256,245.5c-3.2,1.6-4.5,5.4-2.9,8.6c1.1,2.3,3.4,3.6,5.8,3.6c1,0,1.9-0.2,2.8-0.6c3.2-1.6,4.5-5.4,2.9-8.6
				C263.1,245.3,259.2,244,256,245.5z"/>
			<path class="st1" d="M245.7,263.3c-3.5-0.8-6.9,1.4-7.7,4.8c-0.8,3.5,1.4,6.9,4.8,7.7c0.5,0.1,1,0.2,1.4,0.2c2.9,0,5.6-2,6.3-5
				C251.4,267.6,249.2,264.1,245.7,263.3z"/>
			<path class="st1" d="M245.5,287.3c-2.8,2.2-3.2,6.3-1,9.1c1.3,1.6,3.2,2.4,5,2.4c1.4,0,2.8-0.5,4-1.4c2.8-2.2,3.2-6.3,1-9.1
				C252.3,285.5,248.3,285.1,245.5,287.3z"/>
			<path class="st1" d="M296.7,275.9c0.5,0,1-0.1,1.4-0.2c3.5-0.8,5.6-4.2,4.8-7.7c-0.8-3.5-4.3-5.6-7.7-4.8s-5.6,4.3-4.8,7.7
				C291.2,273.9,293.8,275.9,296.7,275.9z"/>
			<path class="st1" d="M284.9,245.5c-3.2-1.6-7.1-0.2-8.6,3c-1.6,3.2-0.2,7,3,8.6l0,0c0.9,0.4,1.8,0.6,2.8,0.6
				c2.4,0,4.7-1.3,5.8-3.6C289.5,250.9,288.2,247,284.9,245.5z"/>
			<path class="st1" d="M270.6,296L270.6,296c-0.1,0-0.1,0-0.1,0c-1.7,0-3.4,0.7-4.6,1.9c-1.2,1.2-1.9,2.8-1.9,4.6
				c0,1.7,0.7,3.4,1.9,4.6c1.2,1.2,2.8,1.9,4.6,1.9h0.1h0.1l0,0c3.5,0,6.4-2.9,6.4-6.4C277.1,298.9,274.2,296,270.6,296z"/>
			<path class="st1" d="M270.6,336.4c-18.4,0-33.4,15-33.4,33.4c0,18.4,15,33.4,33.4,33.4s33.4-15,33.4-33.4
				C303.9,351.4,288.9,336.4,270.6,336.4z M270.6,390.2c-11.3,0-20.5-9.2-20.5-20.5s9.2-20.5,20.5-20.5c11.3,0,20.5,9.2,20.5,20.5
				S281.8,390.2,270.6,390.2z"/>
			<path class="st1" d="M336.9,186.1H465c3.5,0,6.4-2.9,6.4-6.4c0-3.5-2.9-6.4-6.4-6.4H336.9c-3.5,0-6.4,2.9-6.4,6.4
				C330.5,183.2,333.3,186.1,336.9,186.1z"/>
			<path class="st1" d="M335.1,282c1.7,0,3.4-0.7,4.6-1.9c1.2-1.2,1.9-2.8,1.9-4.6s-0.7-3.4-1.9-4.6c-1.2-1.2-2.8-1.9-4.6-1.9
				c-1.7,0-3.4,0.7-4.6,1.9c-1.2,1.2-1.9,2.8-1.9,4.6s0.7,3.4,1.9,4.6C331.8,281.3,333.5,282,335.1,282z"/>
			<path class="st1" d="M354.3,275.6c0,3.5,2.9,6.4,6.4,6.4s6.4-2.9,6.4-6.4s-2.9-6.4-6.4-6.4S354.3,272,354.3,275.6z"/>
			<path class="st1" d="M380,275.6c0,3.5,2.9,6.4,6.4,6.4s6.4-2.9,6.4-6.4s-2.9-6.4-6.4-6.4S380,272,380,275.6z"/>
			<path class="st1" d="M405.6,275.6c0,3.5,2.9,6.4,6.4,6.4c3.5,0,6.4-2.9,6.4-6.4s-2.9-6.4-6.4-6.4
				C408.5,269.1,405.6,272,405.6,275.6z"/>
			<path class="st1" d="M431.2,275.6c0,3.5,2.9,6.4,6.4,6.4c3.5,0,6.4-2.9,6.4-6.4s-2.9-6.4-6.4-6.4
				C434.1,269.1,431.2,272,431.2,275.6z"/>
			<path class="st1" d="M463.3,269.1c-1.7,0-3.4,0.7-4.6,1.9c-1.2,1.2-1.9,2.8-1.9,4.6s0.7,3.4,1.9,4.6c1.2,1.2,2.8,1.9,4.6,1.9
				c1.7,0,3.4-0.7,4.6-1.9c1.2-1.2,1.9-2.8,1.9-4.6s-0.7-3.4-1.9-4.6C466.7,269.8,465,269.1,463.3,269.1z"/>
			<path class="st1" d="M463.3,363.3H335.1c-3.5,0-6.4,2.9-6.4,6.4s2.9,6.4,6.4,6.4h128.1c3.5,0,6.4-2.9,6.4-6.4
				S466.8,363.3,463.3,363.3z"/>
		</g>
	</g>
</g>
</svg>
