<?xml version="1.0" encoding="utf-8"?>
<!-- Generator: Adobe Illustrator 19.0.0, SVG Export Plug-In . SVG Version: 6.00 Build 0)  -->
<svg version="1.1" id="Warstwa_1" xmlns="http://www.w3.org/2000/svg" xmlns:xlink="http://www.w3.org/1999/xlink" x="0px" y="0px"
	 viewBox="0 0 708.7 708.7" style="enable-background:new 0 0 708.7 708.7;" xml:space="preserve">
<style type="text/css">
	.st0{fill:#154A90;}
	.st1{fill:#FFFFFF;}
</style>
<g id="XMLID_2_">
	<g id="XMLID_10_">
		<path id="XMLID_13_" class="st0" d="M326.5,77.5l-227.8,117c-17.2,8.8-27.8,25.2-27.8,42.9v234c0,17.7,10.6,34,27.8,42.9
			l227.8,117c17.2,8.8,38.4,8.8,55.6,0l227.8-117c17.2-8.8,27.8-25.2,27.8-42.9v-234c0-17.7-10.6-34-27.8-42.9l-227.8-117
			C364.9,68.7,343.7,68.7,326.5,77.5z"/>
	</g>
	<g id="XMLID_7_">
		<g id="XMLID_8_">
			<path id="XMLID_45_" class="st1" d="M268.7,174.2c-2.5-2.5-6.5-2.5-9-0.1c-2.6,2.5-2.6,6.5-0.1,9l15.3,15.4
				c1.2,1.2,2.8,1.9,4.6,1.9l0,0c1.7,0,3.3-0.7,4.5-1.9l46.5-46.2c2.5-2.5,2.5-6.5,0.1-9c-2.5-2.5-6.5-2.5-9,0l-14.1,14
				c-7.5-7.7-17.9-12.2-28.8-12.2c-22.1,0-40.1,18-40.1,40.1s18,40.1,40.1,40.1c17.8,0,33.3-11.5,38.4-28.5c1-3.4-0.9-7-4.3-8
				c-3.4-1-7,0.9-8,4.3c-3.5,11.4-14.2,19.4-26.2,19.4c-15.1,0-27.3-12.2-27.3-27.3s12.2-27.3,27.3-27.3c7.5,0,14.6,3.1,19.7,8.5
				L279.5,185L268.7,174.2z"/>
			<path id="XMLID_42_" class="st1" d="M278.6,230.6c-22.1,0-40.1,18-40.1,40.1s18,40.1,40.1,40.1s40.1-18,40.1-40.1
				S300.7,230.6,278.6,230.6z M278.6,298c-15.1,0-27.3-12.2-27.3-27.3c0-15.1,12.2-27.3,27.3-27.3s27.3,12.2,27.3,27.3
				C305.9,285.8,293.6,298,278.6,298z"/>
			<path id="XMLID_39_" class="st1" d="M318.7,356.3c0-22.1-18-40.1-40.1-40.1s-40.1,18-40.1,40.1s18,40.1,40.1,40.1
				S318.7,378.5,318.7,356.3z M278.6,383.7c-15.1,0-27.3-12.2-27.3-27.3c0-15.1,12.2-27.3,27.3-27.3s27.3,12.2,27.3,27.3
				C305.9,371.5,293.6,383.7,278.6,383.7z"/>
			<path id="XMLID_38_" class="st1" d="M463.8,264.3H339.1c-3.6,0-6.4,2.9-6.4,6.4c0,3.6,2.9,6.4,6.4,6.4h124.7
				c3.6,0,6.4-2.9,6.4-6.4C470.2,267.2,467.3,264.3,463.8,264.3z"/>
			<path id="XMLID_37_" class="st1" d="M463.8,178.8H339.1c-3.6,0-6.4,2.9-6.4,6.4c0,3.6,2.9,6.4,6.4,6.4h124.7
				c3.6,0,6.4-2.9,6.4-6.4C470.2,181.6,467.3,178.8,463.8,178.8z"/>
			<path id="XMLID_36_" class="st1" d="M463.8,350H339.1c-3.6,0-6.4,2.9-6.4,6.4c0,3.6,2.9,6.4,6.4,6.4h124.7c3.6,0,6.4-2.9,6.4-6.4
				C470.2,352.8,467.3,350,463.8,350z"/>
		</g>
	</g>
	<g id="XMLID_1_">
		<path id="XMLID_46_" class="st1" d="M146,437.9v37.1c0,1.3,0.3,2.2,0.9,2.8c0.6,0.6,1.6,0.9,3,0.9H167l0.5,8.4
			c-4.8,0.5-11.9,0.8-21,0.8c-3.8,0-6.7-1-8.6-2.9c-1.9-1.9-2.8-4.5-2.8-7.7v-39.3H146z"/>
		<path id="XMLID_48_" class="st1" d="M184.5,487.6h-10.9v-49.7h10.9V487.6z"/>
		<path id="XMLID_50_" class="st1" d="M212.9,468.8l-10-3.5c-3.7-1.3-6.3-3.2-7.9-5.5s-2.4-5.3-2.4-9.1c0-5.5,1.3-9.1,4-11
			c2.7-1.8,7.4-2.8,14.1-2.8c6.3,0,11.8,0.6,16.3,1.9l-0.7,7.5c-4.2-0.1-9.4-0.2-15.6-0.2c-2.9,0-4.8,0.3-5.8,0.8
			c-1,0.5-1.4,1.8-1.4,3.8c0,1.6,0.4,2.8,1.1,3.5c0.7,0.7,2.1,1.4,4.1,2.1l9.4,3.2c3.8,1.3,6.6,3.2,8.1,5.5c1.6,2.3,2.4,5.4,2.4,9.1
			c0,5.6-1.3,9.3-4,11.3c-2.7,2-7.5,3-14.4,3c-5.6,0-11.3-0.6-17.1-1.9l0.6-7.9c10.2,0.2,15.7,0.4,16.4,0.4c2.9,0,4.9-0.3,5.9-0.9
			c1-0.6,1.5-1.9,1.5-3.9c0-1.7-0.3-2.9-1-3.6C215.9,470,214.7,469.3,212.9,468.8z"/>
		<path id="XMLID_52_" class="st1" d="M273.4,446.8h-14.8v40.8h-11v-40.8h-14.8v-8.9h40.7V446.8z"/>
		<path id="XMLID_54_" class="st1" d="M302.5,474.5h-17.1l-3.6,13h-11.2l14.3-46.8c0.2-0.9,0.6-1.6,1.4-2.1c0.7-0.5,1.5-0.8,2.4-0.8
			h10.4c2.1,0,3.3,1,3.8,2.9l14.3,46.8h-11.2L302.5,474.5z M300.1,466l-4.2-15.2c-0.6-2.4-0.9-4-1-4.7H293c-0.1,0.5-0.3,1.2-0.5,2.3
			c-0.2,1.1-0.4,1.8-0.6,2.4l-4.2,15.2H300.1z"/>
		<path id="XMLID_57_" class="st1" d="M361.6,474.5h-17.1l-3.6,13h-11.2l14.3-46.8c0.2-0.9,0.6-1.6,1.4-2.1c0.7-0.5,1.5-0.8,2.4-0.8
			h10.4c2.1,0,3.3,1,3.8,2.9l14.3,46.8h-11.2L361.6,474.5z M359.2,466l-4.2-15.2c-0.6-2.4-0.9-4-1-4.7h-1.9
			c-0.1,0.5-0.3,1.2-0.5,2.3c-0.2,1.1-0.4,1.8-0.6,2.4l-4.2,15.2H359.2z"/>
		<path id="XMLID_60_" class="st1" d="M443.1,437.9l-7.8,46.7c-0.2,0.9-0.6,1.6-1.4,2.2c-0.7,0.6-1.6,0.8-2.6,0.8h-10.5
			c-1,0-1.9-0.3-2.6-0.9c-0.7-0.6-1.2-1.3-1.3-2.2l-5.4-32.5c-0.4-2.1-0.7-4.2-0.9-6.3h-1.4c0,0.1-0.1,1-0.3,2.7
			c-0.2,1.6-0.4,2.9-0.5,3.7l-5.3,32.4c-0.1,0.9-0.6,1.7-1.3,2.2c-0.7,0.6-1.6,0.9-2.6,0.9h-10.5c-1,0-1.8-0.3-2.6-0.8
			c-0.7-0.6-1.2-1.3-1.4-2.2l-7.8-46.7H388l4.8,34.5c0.3,2.2,0.5,4.6,0.6,7.2h1.4c0.1-1.3,0.5-3.7,1.1-7.2l5.3-31.1
			c0.1-1,0.6-1.8,1.3-2.4c0.7-0.6,1.6-0.9,2.6-0.9h9.5c1,0,1.9,0.3,2.6,0.9c0.7,0.6,1.1,1.4,1.3,2.4l5.3,31.2c0.6,3.6,0.9,5.9,1,7.1
			h1.5c0.2-2.7,0.4-5.1,0.6-7.1l4.9-34.6H443.1z"/>
		<path id="XMLID_62_" class="st1" d="M475.4,474.5h-17.1l-3.6,13h-11.2l14.3-46.8c0.2-0.9,0.6-1.6,1.4-2.1c0.7-0.5,1.5-0.8,2.4-0.8
			H472c2.1,0,3.3,1,3.8,2.9l14.3,46.8H479L475.4,474.5z M473.1,466l-4.2-15.2c-0.6-2.4-0.9-4-1-4.7h-1.9c-0.1,0.5-0.3,1.2-0.5,2.3
			c-0.2,1.1-0.4,1.8-0.6,2.4l-4.2,15.2H473.1z"/>
		<path id="XMLID_65_" class="st1" d="M534.5,487.6h-11.6l-3.7-15.2c-0.5-1.6-1.1-2.7-1.9-3.3c-0.8-0.6-1.9-0.9-3.4-0.9l-7.7-0.1
			v19.4h-10.8v-49.7c4.5-0.4,10.8-0.6,18.9-0.6c6.7,0,11.4,1.1,14.2,3.2c2.8,2.1,4.2,6,4.2,11.5c0,3.6-0.7,6.5-2.2,8.6
			c-1.5,2.1-3.9,3.3-7.3,3.7v0.4c3.8,0.9,6.1,3.4,7.1,7.5L534.5,487.6z M506.1,459.7h7.9c2.9,0,4.8-0.5,5.9-1.5
			c1.1-1,1.6-2.8,1.6-5.6s-0.5-4.6-1.5-5.5c-1-1-3-1.4-5.9-1.4l-7.9,0.1V459.7z"/>
		<path id="XMLID_68_" class="st1" d="M552.5,487.6h-10.9v-49.7h10.9V487.6z"/>
		<path id="XMLID_70_" class="st1" d="M573.6,487.6h-10.9v-49.7h10.9V487.6z"/>
	</g>
</g>
</svg>
