<?xml version="1.0" encoding="utf-8"?>
<!-- Generator: Adobe Illustrator 19.0.0, SVG Export Plug-In . SVG Version: 6.00 Build 0)  -->
<svg version="1.1" id="Warstwa_1" xmlns="http://www.w3.org/2000/svg" xmlns:xlink="http://www.w3.org/1999/xlink" x="0px" y="0px"
	 viewBox="0 0 708.7 708.7" style="enable-background:new 0 0 708.7 708.7;" xml:space="preserve">
<style type="text/css">
	.st0{fill:#164C90;}
	.st1{fill:#FFFFFF;}
</style>
<g id="XMLID_2_">
	<g id="XMLID_10_">
		<path id="XMLID_15_" class="st0" d="M326.5,77.4l-227.8,117c-17.2,8.8-27.8,25.2-27.8,42.9v234c0,17.7,10.6,34,27.8,42.9
			l227.8,117c17.2,8.8,38.4,8.8,55.6,0l227.8-117c17.2-8.8,27.8-25.2,27.8-42.9v-234c0-17.7-10.6-34-27.8-42.9l-227.8-117
			C364.9,68.6,343.7,68.6,326.5,77.4z"/>
	</g>
	<g id="XMLID_1_">
		<path id="XMLID_3_" class="st1" d="M242.9,489.2h-11.6l-3.7-15.2c-0.5-1.6-1.1-2.7-1.9-3.3c-0.8-0.6-1.9-0.9-3.4-0.9l-7.7-0.1
			v19.4h-10.8v-49.7c4.5-0.4,10.8-0.6,18.9-0.6c6.7,0,11.4,1.1,14.2,3.2c2.8,2.1,4.2,6,4.2,11.5c0,3.6-0.7,6.5-2.2,8.6
			c-1.5,2.1-3.9,3.3-7.3,3.7v0.4c3.8,0.9,6.1,3.4,7.1,7.5L242.9,489.2z M214.6,461.3h7.9c2.9,0,4.8-0.5,5.9-1.5
			c1.1-1,1.6-2.8,1.6-5.6c0-2.7-0.5-4.6-1.5-5.5c-1-1-3-1.4-5.9-1.4l-7.9,0.1V461.3z"/>
		<path id="XMLID_6_" class="st1" d="M277,476.1h-17.1l-3.6,13h-11.2l14.3-46.8c0.2-0.9,0.6-1.6,1.4-2.1c0.7-0.5,1.5-0.8,2.4-0.8
			h10.4c2.1,0,3.3,1,3.8,2.9l14.3,46.8h-11.2L277,476.1z M274.6,467.6l-4.2-15.2c-0.6-2.4-0.9-4-1-4.7h-1.9
			c-0.1,0.5-0.3,1.2-0.5,2.3c-0.2,1.1-0.4,1.8-0.6,2.4l-4.2,15.2H274.6z"/>
		<path id="XMLID_9_" class="st1" d="M338.8,439.5v45.7c0,2.6-1.3,4-3.9,4h-6.8c-1.1,0-2-0.3-2.6-0.8c-0.6-0.5-1.2-1.3-1.8-2.5
			l-13-26.5c-1.6-3.5-2.6-6.1-3-7.7h-0.8c0.3,2.4,0.5,5,0.5,7.9v29.5h-10.4v-45.7c0-2.6,1.3-4,4-4h6.7c1.1,0,2,0.3,2.6,0.8
			c0.6,0.5,1.2,1.3,1.8,2.5l12.6,25.7c1.2,2.4,2.4,5.1,3.6,8h0.7c-0.3-3.7-0.4-6.5-0.4-8.4v-28.6H338.8z"/>
		<path id="XMLID_12_" class="st1" d="M363.5,467.3h-4.2c0.3,1.9,0.5,3.5,0.5,4.8v17.1h-10.9v-49.7h10.9v14c0,2.1-0.2,4.1-0.5,5.9
			h4.2l12.6-19.9H388l-12.8,19.8c-0.8,1.4-2,2.8-3.6,4v0.3c1.7,1.2,3.1,2.7,4.2,4.4l13.1,21.2h-12.2L363.5,467.3z"/>
		<path id="XMLID_14_" class="st1" d="M405.2,489.2h-10.9v-49.7h10.9V489.2z"/>
		<path id="XMLID_17_" class="st1" d="M457.2,439.5v45.7c0,2.6-1.3,4-3.9,4h-6.8c-1.1,0-2-0.3-2.6-0.8c-0.6-0.5-1.2-1.3-1.8-2.5
			l-13-26.5c-1.6-3.5-2.6-6.1-3-7.7h-0.8c0.3,2.4,0.5,5,0.5,7.9v29.5h-10.4v-45.7c0-2.6,1.3-4,4-4h6.7c1.1,0,2,0.3,2.6,0.8
			c0.6,0.5,1.2,1.3,1.8,2.5l12.6,25.7c1.2,2.4,2.4,5.1,3.6,8h0.7c-0.3-3.7-0.4-6.5-0.4-8.4v-28.6H457.2z"/>
		<path id="XMLID_19_" class="st1" d="M504.9,460.5v28.7h-8.1l-1-5c-3.8,3.9-8.6,5.9-14.3,5.9c-5.6,0-9.6-2-12.1-6.1
			c-2.5-4.1-3.7-10.7-3.7-19.8c0-9.7,1.6-16.4,4.9-20.1c3.3-3.7,9.1-5.5,17.3-5.5c6,0,11.1,0.6,15.3,1.7l-0.9,8.1
			c-5.4-0.2-10.1-0.4-14-0.4c-2.2,0-3.9,0.2-5.2,0.5c-1.3,0.4-2.4,1.1-3.3,2.3c-1,1.2-1.6,2.9-1.9,5c-0.3,2.1-0.5,5-0.5,8.7
			c0,6.2,0.6,10.4,1.7,12.7c1.2,2.3,3.3,3.5,6.4,3.5c2.9,0,5.9-0.8,8.9-2.5v-17.7H504.9z"/>
	</g>
	<g id="XMLID_21_">
		<g id="XMLID_22_">
			<g id="XMLID_23_">
				<path id="XMLID_27_" class="st1" d="M477.9,166.8H230.8c-9.3,0-16.9,7.6-16.9,16.9V405c0,9.3,7.6,16.9,16.9,16.9h247.1
					c9.3,0,16.9-7.6,16.9-16.9V183.6C494.7,174.3,487.2,166.8,477.9,166.8z M427,195.1c0-3.4,2.8-6.2,6.2-6.2h6.2
					c3.4,0,6.2,2.8,6.2,6.2v7.1c0,3.4-2.8,6.2-6.2,6.2h-6.2c-3.4,0-6.2-2.8-6.2-6.2V195.1z M398,195.1c0-3.4,2.8-6.2,6.2-6.2h6.2
					c3.4,0,6.2,2.8,6.2,6.2v7.1c0,3.4-2.8,6.2-6.2,6.2h-6.2c-3.4,0-6.2-2.8-6.2-6.2V195.1z M474.5,401.6H234.2V227.1h240.3V401.6
					L474.5,401.6z M474.7,202.2c0,3.4-2.8,6.2-6.2,6.2h-6.2c-3.4,0-6.2-2.8-6.2-6.2v-7.1c0-3.4,2.8-6.2,6.2-6.2h6.2
					c3.4,0,6.2,2.8,6.2,6.2V202.2z"/>
				<path id="XMLID_26_" class="st1" d="M270.7,316.2l-2.2,12.9c-0.3,1.9,0.4,3.8,2,4.9c0.9,0.6,1.9,1,3,1c0.8,0,1.6-0.2,2.4-0.6
					l11.6-6.1l11.6,6.1c1.7,0.9,3.8,0.7,5.3-0.4c1.6-1.1,2.3-3,2-4.9l-2.2-12.9l9.4-9.2c1.4-1.4,1.9-3.3,1.3-5.2
					c-0.6-1.8-2.2-3.2-4.1-3.4l-13-1.9l-5.8-11.8c-0.9-1.7-2.6-2.8-4.5-2.8c-1.9,0-3.7,1.1-4.5,2.8l-5.8,11.8l-13,1.9
					c-1.9,0.3-3.5,1.6-4.1,3.4c-0.6,1.8-0.1,3.8,1.3,5.2L270.7,316.2z"/>
				<path id="XMLID_25_" class="st1" d="M337.6,316.2l-2.2,12.9c-0.3,1.9,0.4,3.8,2,4.9c0.9,0.6,1.9,1,3,1c0.8,0,1.6-0.2,2.4-0.6
					l11.6-6.1l11.6,6.1c1.7,0.9,3.8,0.7,5.3-0.4c1.6-1.1,2.3-3,2-4.9l-2.2-12.9l9.4-9.2c1.4-1.3,1.9-3.3,1.3-5.2
					c-0.6-1.8-2.2-3.2-4.1-3.4l-13-1.9l-5.8-11.8c-0.8-1.7-2.6-2.8-4.5-2.8c-1.9,0-3.7,1.1-4.5,2.8l-5.8,11.8l-13,1.9
					c-1.9,0.3-3.5,1.6-4.1,3.4c-0.6,1.8-0.1,3.8,1.3,5.2L337.6,316.2z"/>
				<path id="XMLID_24_" class="st1" d="M404.4,316.2l-2.2,12.9c-0.3,1.9,0.4,3.8,2,4.9c0.9,0.6,1.9,1,3,1c0.8,0,1.6-0.2,2.4-0.6
					l11.6-6.1l11.6,6.1c1.7,0.9,3.8,0.7,5.3-0.4c1.6-1.1,2.3-3,2-4.9l-2.2-12.9l9.4-9.2c1.4-1.4,1.9-3.3,1.3-5.2
					c-0.6-1.8-2.2-3.2-4.1-3.4l-13-1.9l-5.8-11.8c-0.9-1.7-2.6-2.8-4.5-2.8c-1.9,0-3.7,1.1-4.5,2.8l-5.8,11.8l-13,1.9
					c-1.9,0.3-3.5,1.6-4.1,3.4c-0.6,1.8-0.1,3.8,1.3,5.2L404.4,316.2z"/>
			</g>
		</g>
	</g>
</g>
</svg>
